<svg xmlns="http://www.w3.org/2000/svg" viewBox="0 0 80 80" fill="none" stroke="white" stroke-width="2" stroke-linecap="round" stroke-linejoin="round">
  <!-- Left ear (tall) -->
  <path d="M28 36 C26 28 24 18 26 10 C27 6 30 4 33 6 C36 8 36 14 35 22 L34 30"/>
  <!-- Right ear (shorter, tilted) -->
  <path d="M38 32 C38 24 40 16 44 12 C46 10 49 10 50 13 C51 16 49 22 46 27 L42 32"/>
  <!-- Head -->
  <path d="M24 36 C22 40 22 46 26 50 C30 54 36 55 42 54 C48 53 52 49 52 44 C52 38 48 33 42 32 L35 30 C30 29 25 32 24 36Z"/>
  <!-- Eye -->
  <circle cx="35" cy="42" r="2" fill="white" stroke="none"/>
  <!-- Nose -->
  <path d="M40 47 L42 45 L44 47"/>
  <!-- Body -->
  <path d="M26 50 C24 56 24 62 28 66 C32 70 40 71 46 69 C52 67 54 61 52 55 C51 52 49 50 46 49"/>
  <!-- Tail -->
  <circle cx="54" cy="62" r="4"/>
  <!-- Front legs -->
  <path d="M30 66 L28 74 M36 68 L36 76"/>
  <!-- Back legs -->
  <path d="M44 68 L46 76 M50 64 L54 72"/>
</svg>
